<svg width="178" height="40" viewBox="0 0 178 40" fill="none" xmlns="http://www.w3.org/2000/svg">
<path d="M6.89681 22.3903C3.08394 22.3903 0 19.2904 0 15.4995V12.2689H2.89703V15.4995C2.89703 17.7031 4.69133 19.4958 6.89681 19.4958V22.3903Z" fill="#FF707C"/>
<path d="M43.4742 16.0971C42.3341 12.9972 40.1473 10.4202 37.3437 8.77686V2.91318C34.8018 2.91318 32.6524 4.6312 31.9982 6.98414C31.4188 6.90944 30.8394 6.87209 30.26 6.87209H19.5503C11.775 6.87209 5.45764 13.184 5.45764 20.9524C5.45764 27.6751 10.1677 33.2773 16.4664 34.6966V40H22.0922V35.0327H27.7181V40H33.3439V34.6779C38.0353 33.6321 41.8481 30.2334 43.4929 25.789H47.3805V16.0784H43.4929L43.4742 16.0971Z" fill="#FF707C"/>
<path d="M26.4097 6.87209H19.5503C11.775 6.87209 5.45764 13.1839 5.45764 20.9524C5.45764 27.6751 10.1677 33.2773 16.4664 34.6965V40H22.0922V35.0327H26.4097V6.87209Z" fill="#FF959E"/>
<path d="M17.5878 11.3539H32.2225V14.2484H17.5878V11.3539Z" fill="#E21A4D"/>
<path d="M37.2316 14.1923C36.1662 14.1923 35.3065 15.0513 35.3065 16.1158C35.3065 17.1802 36.1662 18.0392 37.2316 18.0392C38.2969 18.0392 39.1567 17.1802 39.1567 16.1158C39.1567 15.0513 38.2969 14.1923 37.2316 14.1923Z" fill="#E21A4D"/>
<path d="M24.8584 0C29.2507 0 32.8019 3.54809 32.8019 7.93651C32.8019 10.5135 31.5683 12.8105 29.6619 14.2484L20.0736 14.267C18.1672 12.8105 16.9149 10.5322 16.9149 7.93651C16.9149 3.54809 20.4662 0 24.8584 0Z" fill="#E66600"/>
<path d="M24.8584 2.76376C27.7181 2.76376 30.017 5.07936 30.017 7.91782C30.017 10.775 27.6994 13.0719 24.8584 13.0719C21.9988 13.0719 19.6998 10.7563 19.6998 7.91782C19.6998 5.06068 22.0175 2.76376 24.8584 2.76376Z" fill="#FFBA00"/>
<path d="M24.8584 0C20.4848 0 16.9149 3.54809 16.9149 7.93651C16.9149 10.5135 18.1485 12.8105 20.0737 14.267L24.8584 14.2484V0V0Z" fill="#FFBA00"/>
<path d="M24.8584 2.76376C21.9988 2.76376 19.6998 5.07935 19.6998 7.91782C19.6998 10.775 22.0175 13.0719 24.8584 13.0719V2.74509V2.76376Z" fill="#FDDF9C"/>
<path d="M72.9074 22.5829C72.9074 20.8892 72.6332 19.5906 72.0768 18.6873C71.5204 17.7839 70.6817 17.3403 69.5528 17.3403C69.0367 17.3403 68.5286 17.4129 68.0286 17.55C67.5287 17.6952 67.0932 17.8646 66.7384 18.0743V27.9062C67.1013 27.9869 67.4803 28.0353 67.8754 28.0594C68.2706 28.0836 68.6173 28.0998 68.8996 28.0998C70.1334 28.0998 71.1091 27.6804 71.8268 26.8496C72.5445 26.0108 72.9074 24.5913 72.9074 22.591V22.5829ZM77.7297 22.6958C77.7297 24.1396 77.5362 25.4381 77.1491 26.6076C76.7621 27.7772 76.1976 28.7773 75.4557 29.6C74.7138 30.4227 73.7945 31.0598 72.7219 31.5115C71.6414 31.9632 70.4075 32.189 69.0205 32.189C67.7867 32.189 66.5287 32.1003 65.2385 31.9229C63.9563 31.7454 62.8757 31.5115 61.9967 31.2292V5.81461L66.7384 5.00806V14.0738C67.4077 13.7673 68.0528 13.5495 68.6657 13.4366C69.2786 13.3237 69.8995 13.2591 70.5204 13.2591C71.7059 13.2591 72.7461 13.485 73.6412 13.9366C74.5444 14.3883 75.2944 15.0255 75.8992 15.8643C76.504 16.7031 76.9556 17.6952 77.2701 18.8566C77.5765 20.01 77.7297 21.3005 77.7297 22.712V22.6958ZM80.0845 22.8491C80.0845 21.2521 80.3264 19.8568 80.8183 18.6469C81.3102 17.4371 81.9473 16.4289 82.7456 15.6223C83.544 14.8158 84.4552 14.2028 85.4793 13.7915C86.5115 13.3801 87.5599 13.1785 88.6405 13.1785C91.3177 13.1785 93.3418 13.9689 94.7369 15.5498C96.1239 17.1306 96.8174 19.4374 96.8174 22.47C96.8174 22.7765 96.8094 23.0991 96.8013 23.4379C96.7852 23.7686 96.7691 24.0428 96.7449 24.2444H84.9874C84.9874 25.4301 85.4793 26.3576 86.4551 27.0432C87.4308 27.7207 88.6888 28.0675 90.2371 28.0675C91.1887 28.0675 92.0919 27.9627 92.9547 27.761C93.8176 27.5513 94.5434 27.3497 95.132 27.14L95.7852 31.1889C94.9627 31.4712 94.0918 31.7132 93.1644 31.8987C92.237 32.0922 91.1968 32.189 90.0436 32.189C88.5034 32.189 87.1163 31.9874 85.8987 31.5922C84.681 31.197 83.6327 30.6001 82.7779 29.8177C81.915 29.0354 81.2537 28.0594 80.7941 26.9061C80.3344 25.7527 80.1006 24.3977 80.1006 22.8572L80.0845 22.8491ZM92.229 20.9617C92.229 20.4697 92.1645 20.0019 92.0354 19.5503C91.9064 19.0986 91.7048 18.6953 91.4226 18.3324C91.1403 17.9694 90.7774 17.6871 90.342 17.4613C89.9065 17.2435 89.3662 17.1306 88.7211 17.1306C88.1002 17.1306 87.5679 17.2355 87.1244 17.4371C86.6728 17.6387 86.3019 17.9291 86.0035 18.284C85.7051 18.6469 85.4793 19.0583 85.31 19.518C85.1406 19.9777 85.0358 20.4536 84.9794 20.9456H92.229V20.9617Z" fill="#FEFEFE"/>
<path d="M104.857 22.6959C104.857 21.3812 105.067 20.1471 105.478 18.9938C105.89 17.8404 106.519 16.8241 107.365 15.9692C108.212 15.1062 109.285 14.4286 110.583 13.9286C111.881 13.4285 113.429 13.1785 115.228 13.1785C116.308 13.1785 117.284 13.2591 118.155 13.4124C119.026 13.5656 119.913 13.8237 120.816 14.1867L119.776 18.0017C119.26 17.8243 118.687 17.6629 118.058 17.5178C117.429 17.3726 116.623 17.3081 115.647 17.3081C114.518 17.3081 113.575 17.4452 112.817 17.7113C112.059 17.9775 111.446 18.3566 110.986 18.8324C110.526 19.3083 110.188 19.881 109.986 20.5504C109.785 21.2199 109.68 21.9377 109.68 22.712C109.68 24.3816 110.147 25.6962 111.091 26.648C112.026 27.5997 113.631 28.0756 115.889 28.0756C116.631 28.0756 117.413 28.0272 118.22 27.9223C119.026 27.8175 119.768 27.6562 120.437 27.4223L121.131 31.3179C120.461 31.576 119.655 31.7858 118.703 31.9551C117.752 32.1245 116.631 32.2052 115.349 32.2052C113.494 32.2052 111.913 31.9632 110.583 31.4712C109.26 30.9792 108.172 30.3178 107.325 29.4629C106.478 28.616 105.857 27.6078 105.454 26.4544C105.059 25.301 104.857 24.0509 104.857 22.712V22.6959ZM132.122 28.3659C132.638 28.3659 133.138 28.3579 133.622 28.3498C134.114 28.3337 134.533 28.3014 134.896 28.253V24.0912C134.59 24.0428 134.219 23.9944 133.775 23.9541C133.34 23.9138 132.937 23.8976 132.582 23.8976C132.09 23.8976 131.614 23.9299 131.154 23.9944C130.695 24.0589 130.283 24.1719 129.937 24.3251C129.59 24.4783 129.316 24.6961 129.106 24.9784C128.904 25.2607 128.8 25.6317 128.8 26.0995C128.8 26.9222 129.106 27.511 129.727 27.8578C130.348 28.2046 131.138 28.3821 132.114 28.3821L132.122 28.3659ZM131.695 13.1704C133.187 13.1704 134.428 13.3479 135.412 13.6947C136.404 14.0415 137.194 14.5335 137.783 15.1626C138.372 15.7917 138.799 16.566 139.057 17.4774C139.315 18.3888 139.444 19.4132 139.444 20.5424V31.3421C138.751 31.4954 137.719 31.6728 136.356 31.8825C134.993 32.0922 133.461 32.189 131.767 32.189C130.614 32.189 129.566 32.0842 128.622 31.8825C127.687 31.6728 126.88 31.3341 126.211 30.8582C125.542 30.3823 125.026 29.7694 124.671 29.0031C124.308 28.245 124.131 27.3094 124.131 26.2044C124.131 25.1478 124.34 24.2606 124.751 23.5427C125.163 22.8249 125.719 22.2442 126.413 21.8086C127.106 21.3731 127.905 21.0585 128.8 20.865C129.703 20.6714 130.638 20.5746 131.614 20.5746C132.848 20.5746 133.936 20.6795 134.888 20.8811V20.3004C134.888 19.397 134.606 18.6469 134.041 18.042C133.477 17.4371 132.501 17.1387 131.114 17.1387C130.211 17.1387 129.348 17.2032 128.509 17.3323C127.671 17.4613 127.001 17.6145 126.485 17.792L125.832 13.977C126.421 13.7673 127.259 13.5818 128.34 13.4205C129.421 13.2511 130.541 13.1704 131.695 13.1704ZM150.516 28.1724C151.669 28.1724 152.556 28.0917 153.177 27.9223C153.798 27.753 154.105 27.4142 154.105 26.898C154.105 26.5673 154.008 26.277 153.814 26.0511C153.621 25.8172 153.355 25.6237 153.008 25.4543C152.661 25.2849 152.266 25.1236 151.815 24.9703C151.363 24.8171 150.895 24.6639 150.403 24.5106C149.71 24.3009 149 24.067 148.282 23.7928C147.565 23.5266 146.904 23.1798 146.315 22.7684C145.726 22.3571 145.234 21.8328 144.847 21.2037C144.46 20.5746 144.267 19.7842 144.267 18.8324C144.267 18.0582 144.412 17.3323 144.71 16.6547C145.008 15.9772 145.468 15.3723 146.097 14.84C146.726 14.3157 147.533 13.9044 148.508 13.606C149.484 13.3075 150.653 13.1624 152.016 13.1624C153.202 13.1624 154.298 13.2511 155.314 13.4285C156.33 13.606 157.209 13.8641 157.959 14.2028L157.226 18.2114C156.79 18.0824 156.105 17.8726 155.185 17.5742C154.258 17.2758 153.218 17.1306 152.065 17.1306C150.855 17.1306 150.04 17.2758 149.613 17.5742C149.186 17.8726 148.976 18.1872 148.976 18.5179C148.976 18.8002 149.073 19.0502 149.266 19.268C149.46 19.4858 149.718 19.6874 150.04 19.8648C150.363 20.0423 150.734 20.2197 151.161 20.3891C151.589 20.5585 152.04 20.7198 152.532 20.873C153.226 21.1069 153.943 21.365 154.693 21.6473C155.435 21.9296 156.113 22.2845 156.718 22.712C157.322 23.1395 157.814 23.6799 158.201 24.3332C158.588 24.9865 158.782 25.793 158.782 26.7448C158.782 27.4868 158.637 28.1966 158.355 28.866C158.072 29.5355 157.605 30.1162 156.943 30.6001C156.29 31.0921 155.435 31.4712 154.379 31.7535C153.323 32.0358 152.024 32.181 150.484 32.181C148.92 32.181 147.581 32.0035 146.476 31.6406C145.371 31.2776 144.484 30.9631 143.815 30.6727L144.549 26.7044C145.452 27.0674 146.404 27.3981 147.42 27.7046C148.436 28.0111 149.468 28.1643 150.524 28.1643L150.516 28.1724ZM163.435 31.7616V5.80656L168.177 5V13.7915C168.564 13.6624 169.023 13.5414 169.564 13.4285C170.104 13.3156 170.58 13.2511 170.991 13.2511C172.33 13.2511 173.442 13.4527 174.346 13.8479C175.249 14.2431 175.967 14.8158 176.507 15.5417C177.047 16.2757 177.434 17.1467 177.66 18.163C177.894 19.1793 178.007 20.3004 178.007 21.5344V31.7535H173.265V22.1474C173.265 20.4536 173.071 19.2277 172.684 18.4856C172.297 17.7436 171.564 17.3645 170.483 17.3645C170.047 17.3645 169.612 17.4129 169.193 17.5178C168.765 17.6226 168.427 17.7113 168.169 17.7839V31.7454H163.427L163.435 31.7616Z" fill="#FEFEFE"/>
</svg>
